<svg xmlns="http://www.w3.org/2000/svg" xmlns:xlink="http://www.w3.org/1999/xlink" width="1080" zoomAndPan="magnify" viewBox="0 0 810 1012.49997" height="1350" preserveAspectRatio="xMidYMid meet" version="1.0"><defs><filter x="0%" y="0%" width="100%" height="100%" id="04749608a3"><feColorMatrix values="0 0 0 0 1 0 0 0 0 1 0 0 0 0 1 0 0 0 1 0" color-interpolation-filters="sRGB"></feColorMatrix></filter><filter x="0%" y="0%" width="100%" height="100%" id="189e283a26"><feColorMatrix values="0 0 0 0 1 0 0 0 0 1 0 0 0 0 1 0.2126 0.7152 0.0722 0 0" color-interpolation-filters="sRGB"></feColorMatrix></filter><clipPath id="4449b9ec6c"><path d="M 0.199219 0 L 809.800781 0 L 809.800781 1012 L 0.199219 1012 Z M 0.199219 0 " clip-rule="nonzero"></path></clipPath><clipPath id="efee3cffbf"><path d="M 272.980469 388.511719 L 809.714844 388.511719 L 809.714844 665 L 272.980469 665 Z M 272.980469 388.511719 " clip-rule="nonzero"></path></clipPath><mask id="75b4330f3d"><g filter="url(#04749608a3)"><g filter="url(#189e283a26)" transform="matrix(0.92947, 0, 0, 0.929491, 149.911094, 111.405633)"><image x="0" y="0" width="842" height="596" preserveAspectRatio="xMidYMid meet"></image></g></g></mask><clipPath id="0364a3d246"><path d="M 41.664062 346.386719 L 325.023438 346.386719 L 325.023438 641.742188 L 41.664062 641.742188 Z M 41.664062 346.386719 " clip-rule="nonzero"></path></clipPath><mask id="8e9368c16e"><g filter="url(#04749608a3)"><g filter="url(#189e283a26)" transform="matrix(0.978436, 0, 0, 0.978544, -237.502267, 346.386232)"><image x="0" y="0" width="842" height="596" preserveAspectRatio="xMidYMid meet"></image></g></g></mask></defs><g clip-path="url(#4449b9ec6c)"><path fill="#ffffff" d="M 0.199219 0 L 809.800781 0 L 809.800781 1012 L 0.199219 1012 Z M 0.199219 0 " fill-opacity="1" fill-rule="nonzero"></path><path fill="#ffffff" d="M 0.199219 0 L 809.800781 0 L 809.800781 1012 L 0.199219 1012 Z M 0.199219 0 " fill-opacity="1" fill-rule="nonzero"></path></g><g clip-path="url(#efee3cffbf)"><g mask="url(#75b4330f3d)"><g transform="matrix(0.92947, 0, 0, 0.929491, 149.911094, 111.405633)"><image x="0" y="0" width="842" height="596" preserveAspectRatio="xMidYMid meet"></image></g></g></g><g clip-path="url(#0364a3d246)"><g mask="url(#8e9368c16e)"><g transform="matrix(0.978436, 0, 0, 0.978544, -237.502267, 346.386232)"><image x="0" y="0" width="842" height="596" preserveAspectRatio="xMidYMid meet"></image></g></g></g></svg>